<svg width="48" height="48" viewBox="0 0 48 48" fill="none" xmlns="http://www.w3.org/2000/svg">
<g id="uil-arrow-up">
<path id="Vector" d="M35.42 22.58L25.42 12.58C25.2298 12.3979 25.0055 12.2552 24.76 12.16C24.2731 11.96 23.7269 11.96 23.24 12.16C22.9945 12.2552 22.7702 12.3979 22.58 12.58L12.58 22.58C12.3935 22.7665 12.2456 22.9879 12.1447 23.2315C12.0438 23.4752 11.9918 23.7363 11.9918 24C11.9918 24.5326 12.2034 25.0434 12.58 25.42C12.9566 25.7966 13.4674 26.0082 14 26.0082C14.5326 26.0082 15.0434 25.7966 15.42 25.42L22 18.82V34C22 34.5304 22.2107 35.0391 22.5858 35.4142C22.9609 35.7893 23.4696 36 24 36C24.5304 36 25.0391 35.7893 25.4142 35.4142C25.7893 35.0391 26 34.5304 26 34V18.82L32.58 25.42C32.7659 25.6075 32.9871 25.7563 33.2309 25.8578C33.4746 25.9593 33.736 26.0116 34 26.0116C34.264 26.0116 34.5254 25.9593 34.7692 25.8578C35.0129 25.7563 35.2341 25.6075 35.42 25.42C35.6075 25.2341 35.7563 25.0129 35.8578 24.7692C35.9593 24.5254 36.0116 24.264 36.0116 24C36.0116 23.736 35.9593 23.4746 35.8578 23.2309C35.7563 22.9871 35.6075 22.7659 35.42 22.58Z" fill="#022B3A"/>
</g>
</svg>
