<svg width="29" height="21" viewBox="0 0 29 21" fill="none" xmlns="http://www.w3.org/2000/svg">
<path id="Vector" d="M28.3431 0.591597C28.1579 0.40414 27.9376 0.255351 27.6948 0.153813C27.452 0.052276 27.1916 0 26.9286 0C26.6656 0 26.4051 0.052276 26.1624 0.153813C25.9196 0.255351 25.6992 0.40414 25.514 0.591597L10.6711 15.5116L4.4351 9.2316C4.2428 9.04512 4.01579 8.89849 3.76703 8.80008C3.51828 8.70168 3.25265 8.65342 2.98532 8.65806C2.71799 8.6627 2.45418 8.72016 2.20897 8.82714C1.96376 8.93413 1.74194 9.08855 1.55617 9.2816C1.37041 9.47464 1.22434 9.70252 1.12631 9.95223C1.02828 10.2019 0.980207 10.4686 0.984832 10.737C0.989457 11.0053 1.04669 11.2701 1.15327 11.5163C1.25985 11.7624 1.41368 11.9851 1.60598 12.1716L9.25655 19.8516C9.44177 20.0391 9.66212 20.1878 9.9049 20.2894C10.1477 20.3909 10.4081 20.4432 10.6711 20.4432C10.9341 20.4432 11.1945 20.3909 11.4373 20.2894C11.6801 20.1878 11.9005 20.0391 12.0857 19.8516L28.3431 3.5316C28.5454 3.34431 28.7068 3.11701 28.8171 2.86401C28.9275 2.61101 28.9845 2.3378 28.9845 2.0616C28.9845 1.78539 28.9275 1.51218 28.8171 1.25918C28.7068 1.00618 28.5454 0.778881 28.3431 0.591597Z" fill="#00BF1F"/>
</svg>
